<?xml version="1.0" encoding="UTF-8" standalone="no"?>
<!-- Created with Inkscape (http://www.inkscape.org/) -->

<svg
   width="20"
   height="20"
   viewBox="0 0 5.29167 5.29167"
   version="1.1"
   id="svg1"
   sodipodi:docname="color_grab.svg"
   inkscape:version="1.3.2 (091e20e, 2023-11-25, custom)"
   xmlns:inkscape="http://www.inkscape.org/namespaces/inkscape"
   xmlns:sodipodi="http://sodipodi.sourceforge.net/DTD/sodipodi-0.dtd"
   xmlns="http://www.w3.org/2000/svg"
   xmlns:svg="http://www.w3.org/2000/svg">
  <sodipodi:namedview
     id="namedview1"
     pagecolor="#ffffff"
     bordercolor="#666666"
     borderopacity="1.0"
     inkscape:showpageshadow="2"
     inkscape:pageopacity="0.0"
     inkscape:pagecheckerboard="0"
     inkscape:deskcolor="#d1d1d1"
     inkscape:document-units="px"
     showgrid="true"
     inkscape:zoom="31.5006"
     inkscape:cx="9.92045"
     inkscape:cy="11.5712"
     inkscape:current-layer="layer1">
    <inkscape:grid
       id="grid1"
       units="px"
       originx="0"
       originy="0"
       spacingx="0.264583"
       spacingy="0.264583"
       empcolor="#0000ff"
       empopacity="0.25098"
       color="#0000ff"
       opacity="0.12549"
       empspacing="5"
       dotted="false"
       gridanglex="30"
       gridanglez="30"
       visible="true" />
  </sodipodi:namedview>
  <defs
     id="defs1" />
  <g
     inkscape:label="Layer 1"
     inkscape:groupmode="layer"
     id="layer1">
    <path
       id="path21"
       style="color:#000000;fill:#000000;stroke-linecap:round;stroke-linejoin:round;-inkscape-stroke:none"
       d="M 3.72485,4.0818 A 0.132292,0.132292 0 0 1 3.69595,4.1185 L 2.93576,4.77788 V 4.97115 L 3.81684,4.17378 Z M 3.12282,4.26421 c -0.061,0.0167 -0.12341,0.0304 -0.18706,0.0403 v 0.12144 z m 0.8816,0.0972 -1.01544,0.9188 c 0.0749,-0.009 0.14931,-0.0209 0.22221,-0.0362 L 4.09124,4.44818 Z M 4.27831,4.63525 3.85663,5.01714 C 4.03056,4.92923 4.19389,4.82289 4.34342,4.70036 Z" />
    <path
       id="path20"
       style="color:#000000;fill:#000000;stroke-linecap:round;stroke-linejoin:round;-inkscape-stroke:none"
       d="M 1.68932,4.00997 0.99944,4.69985 c 0.007,0.006 0.0148,0.0117 0.0222,0.0176 L 1.75443,4.05492 c -0.0221,-0.0144 -0.0438,-0.0296 -0.0651,-0.045 z M 2.00196,4.18773 1.24077,4.87606 c 0.0199,0.0129 0.0402,0.0254 0.0605,0.0377 L 2.07276,4.21667 c -0.0238,-0.009 -0.0475,-0.0189 -0.0708,-0.0289 z M 2.37507,4.29935 1.54773,5.04711 c 0.0242,0.0115 0.0488,0.0223 0.0734,0.0331 l 0.78548,-0.7121 v -0.0636 c -0.0105,-0.002 -0.021,-0.003 -0.0315,-0.005 z M 2.40657,4.7262 1.90014,5.18354 c 0.0222,0.007 0.0447,0.0134 0.0672,0.0196 l 0.43925,-0.3979 z m 0,0.43667 -0.11937,0.10852 c 0.0396,0.006 0.0793,0.0109 0.11937,0.015 z" />
    <path
       id="path19"
       style="color:#000000;fill:#000000;stroke-linecap:round;stroke-linejoin:round;-inkscape-stroke:none"
       d="m 4.32172,2.91856 c -0.002,0.0144 -0.005,0.0286 -0.007,0.0429 l 0.0496,-0.0429 z m 0.44751,0 -0.63768,0.55345 C 4.0999,3.52879 4.06495,3.58342 4.02716,3.63583 L 4.14395,3.75262 5.0948,2.91856 Z M 5.27618,3.1108 4.33154,3.9402 4.50103,4.1097 5.16714,3.52679 C 5.21436,3.39256 5.2511,3.25375 5.27618,3.1108 Z m -0.43977,1.05885 -0.14676,0.12867 0.0279,0.0279 c 0.0415,-0.0506 0.0812,-0.10294 0.11885,-0.15658 z" />
    <path
       style="color:#000000;fill:#000000;stroke-linecap:round;stroke-linejoin:round;-inkscape-stroke:none"
       d="M 2.40665,0.021721 C 1.87684,0.075154 1.39163,0.286857 0.9995,0.608246 L 1.6899,1.29865 C 1.89741,1.1488 2.14111,1.04569 2.40665,1.00409 Z"
       id="path9" />
    <path
       id="path44"
       style="color:#000000;fill:#000000;stroke-linecap:round;stroke-linejoin:round;-inkscape-stroke:none"
       d="M 1.24864,3.69955 A 0.132292,0.132292 0 0 1 1.21194,3.67065 L 0.55256,2.91047 H 0.359291 L 1.15666,3.79154 Z M 1.06623,3.09753 C 1.04953,3.03658 1.03583,2.97412 1.02593,2.91047 H 0.90449 Z M 0.96903,3.97912 0.050231,2.96369 c 0.009,0.0749 0.0209,0.14931 0.0362,0.22221 L 0.88226,4.06594 Z M 0.69519,4.25301 0.313301,3.83133 C 0.401211,4.00526 0.50755,4.16859 0.63008,4.31812 Z" />
    <path
       id="path46"
       style="color:#000000;fill:#000000;stroke-linecap:round;stroke-linejoin:round;-inkscape-stroke:none"
       d="M 0.6215,0.982236 1.3119,1.67264 C 1.27234,1.7275 1.23618,1.78505 1.20337,1.84472 L 0.462853,1.20239 a 0.132292,0.132292 0 0 0 -0.003,-0.002 C 0.50985,1.12479 0.56376,1.05178 0.62108,0.981796 Z M 0.323843,1.43183 1.09124,2.09587 c -0.0331,0.0943 -0.058,0.1921 -0.0739,0.29352 H 0.86851 L 0.169853,1.7853 c 0.04283,-0.12216 0.09444,-0.24011 0.15399,-0.35347 z m -0.23461,0.63303 0.37466,0.32453 h -0.4284 c 0.0111,-0.11031 0.0293,-0.21852 0.0537,-0.32453 z" />
    <path
       id="rect47"
       style="color:#000000;overflow:visible;fill:#000000;stroke:none;stroke-width:0.264583;stroke-linecap:round;stroke-linejoin:round;stroke-dasharray:none"
       d="m 4.61833,0.011522 c -0.16397,0 -0.32792,0.06262 -0.45357,0.188248 L 3.99847,0.36603 C 3.92906,0.43543 3.87942,0.517099 3.84833,0.603424 L 3.69498,0.450106 c -0.14831,-0.148289 -0.38744,-0.148281 -0.53575,0 l -0.0317,0.03169 c -0.14832,0.148298 -0.14832,0.387369 0,0.535654 l 1.15949,1.15863 c 0.14832,0.1483 0.38679,0.14831 0.53511,1e-5 l 0.0317,-0.0317 c 0.1483,-0.14828 0.1483,-0.38671 0,-0.53501 L 4.69337,1.44832 C 4.77967,1.41722 4.86137,1.36762 4.9308,1.2982 L 5.09709,1.13193 C 5.3484,0.880685 5.3484,0.475573 5.09708,0.224308 L 5.07247,0.199699 C 4.94682,0.074072 4.78222,0.01147 4.61825,0.011443 Z" />
    <path
       id="rect49"
       style="overflow:visible;fill:none;stroke:#000000;stroke-width:0.264582;stroke-linecap:round;stroke-linejoin:round"
       d="M 4.10273,0.710596 4.69427,1.30214 2.77527,3.18253 C 2.5299,3.24978 2.28672,3.32134 2.10125,3.50834 L 1.84214,3.23777 C 2.01804,3.05475 2.11996,2.82945 2.18928,2.58551 Z"
       sodipodi:nodetypes="ccccccc" />
  </g>
</svg>
