<?xml version="1.0" encoding="UTF-8" standalone="no"?>
<!-- Created with Inkscape (http://www.inkscape.org/) -->

<svg
   width="20"
   height="20"
   viewBox="0 0 5.29167 5.29167"
   version="1.1"
   id="svg1"
   sodipodi:docname="info.svg"
   inkscape:version="1.3.2 (091e20e, 2023-11-25, custom)"
   xml:space="preserve"
   xmlns:inkscape="http://www.inkscape.org/namespaces/inkscape"
   xmlns:sodipodi="http://sodipodi.sourceforge.net/DTD/sodipodi-0.dtd"
   xmlns="http://www.w3.org/2000/svg"
   xmlns:svg="http://www.w3.org/2000/svg"><sodipodi:namedview
     id="namedview1"
     pagecolor="#ffffff"
     bordercolor="#666666"
     borderopacity="1.0"
     inkscape:showpageshadow="2"
     inkscape:pageopacity="0.0"
     inkscape:pagecheckerboard="0"
     inkscape:deskcolor="#d1d1d1"
     inkscape:document-units="px"
     showgrid="true"
     inkscape:zoom="22.2743"
     inkscape:cx="12.0094"
     inkscape:cy="11.1564"
     inkscape:current-layer="layer1"><inkscape:grid
       id="grid1"
       units="px"
       originx="0"
       originy="0"
       spacingx="0.264583"
       spacingy="0.264583"
       empcolor="#0000ff"
       empopacity="0.25098"
       color="#0000ff"
       opacity="0.12549"
       empspacing="5"
       dotted="false"
       gridanglex="30"
       gridanglez="30"
       visible="true" /></sodipodi:namedview><defs
     id="defs1"><inkscape:perspective
       sodipodi:type="inkscape:persp3d"
       inkscape:vp_x="0 : 6.94167 : 1"
       inkscape:vp_y="0 : 1000 : 0"
       inkscape:vp_z="16 : 6.94167 : 1"
       inkscape:persp3d-origin="8.00001 : 4.275 : 1"
       id="perspective2391" /><inkscape:perspective
       sodipodi:type="inkscape:persp3d"
       inkscape:vp_x="0 : 6.94167 : 1"
       inkscape:vp_y="0 : 1000 : 0"
       inkscape:vp_z="16 : 6.94167 : 1"
       inkscape:persp3d-origin="8.00001 : 4.275 : 1"
       id="perspective2391-3" /></defs><g
     inkscape:label="Layer 1"
     inkscape:groupmode="layer"
     id="layer1"><path
       style="font-style:italic;font-variant:normal;font-weight:normal;font-stretch:normal;font-size:45.1447px;line-height:125%;font-family:'Bell MT';text-align:start;writing-mode:lr-tb;text-anchor:start;fill:none;fill-opacity:1;stroke:#000000;stroke-width:0.264584;stroke-linecap:butt;stroke-linejoin:miter;stroke-dasharray:none;stroke-opacity:1"
       d="M 2.76901,0.155407 C 3.22701,0.058481 3.61822,0.608078 3.36326,0.98888 3.152,1.39847 2.45971,1.34337 2.31694,0.908305 2.17879,0.58628 2.41555,0.201897 2.76901,0.155407 Z"
       id="path3" /><path
       id="path4"
       style="font-style:italic;font-variant:normal;font-weight:normal;font-stretch:normal;font-size:45.1447px;line-height:125%;font-family:'Bell MT';text-align:start;writing-mode:lr-tb;text-anchor:start;fill:none;fill-opacity:1;stroke:#000000;stroke-width:0.258114;stroke-linecap:butt;stroke-linejoin:miter;stroke-dasharray:none;stroke-opacity:1"
       sodipodi:type="inkscape:offset"
       inkscape:radius="0.144511"
       inkscape:original="M 3.52734 2.01562 C 3.2039 2.03911 2.57839 2.49613 2.375 2.7168 C 2.30501 2.78739 2.06069 3.05869 2.26562 3.05078 C 2.39996 2.93872 2.52004 2.82794 2.65039 2.71094 C 2.75378 2.61621 2.98687 2.46629 2.93359 2.70508 C 2.8339 3.47009 2.58043 4.20756 2.46875 4.9707 C 2.40442 5.15445 2.56636 5.33489 2.76172 5.31836 C 3.1363 5.3197 3.81892 4.84324 4.04688 4.58398 C 4.14248 4.52893 4.25699 4.21547 4.05273 4.32227 C 3.93365 4.4651 3.75782 4.59513 3.61133 4.71484 C 3.44999 4.83279 3.25321 4.93618 3.28516 4.7793 C 3.34675 4.47694 3.46242 3.88144 3.57227 3.4375 C 3.65056 3.08965 3.75602 2.74664 3.81055 2.39453 C 3.84404 2.21872 3.72182 2.02157 3.52734 2.01562 z "
       d="m 3.51758,1.87109 c -0.22254,0.0162 -0.45845,0.15029 -0.68946,0.30078 -0.231,0.1505 -0.44055,0.31921 -0.55859,0.44727 -0.0415,0.042 -0.12067,0.12305 -0.17773,0.2207 -0.029,0.0496 -0.0655,0.10113 -0.0469,0.19922 0.009,0.049 0.0492,0.10613 0.0957,0.13086 0.0465,0.0247 0.0899,0.027 0.13086,0.0254 a 0.144525,0.144525 0 0 0 0.0859,-0.0332 C 2.49521,3.04717 2.61666,2.93454 2.74609,2.81836 a 0.144525,0.144525 0 0 0 0.002,0 c 0.005,-0.005 0.013,-0.007 0.0195,-0.0117 C 2.6618,3.50299 2.44173,4.19468 2.33203,4.92383 2.23369,5.20474 2.48022,5.48087 2.76758,5.46094 3.0148,5.45973 3.28058,5.32852 3.53516,5.17187 3.77643,5.02341 3.98391,4.854 4.11914,4.70898 c 0.0645,-0.0371 0.0926,-0.0826 0.12109,-0.13086 0.0285,-0.0482 0.0506,-0.0994 0.0625,-0.15625 0.006,-0.0284 0.01,-0.0576 0.006,-0.0937 C 4.30454,4.29196 4.29205,4.2439 4.25,4.20508 4.20795,4.16625 4.14608,4.15202 4.10156,4.15625 c -0.0445,0.004 -0.0793,0.0183 -0.11523,0.0371 a 0.144525,0.144525 0 0 0 -0.0449,0.0371 C 3.841,4.3509 3.67436,4.47621 3.52539,4.59766 c -0.0231,0.0169 -0.0368,0.0202 -0.0605,0.0351 0.0651,-0.32364 0.154,-0.78006 0.24805,-1.16015 a 0.144525,0.144525 0 0 0 0,-0.004 C 3.78954,3.12817 3.89645,2.78195 3.95312,2.41602 3.99861,2.15883 3.81921,1.8799 3.53125,1.87109 a 0.144525,0.144525 0 0 0 -0.0137,0 z"
       transform="matrix(1.02578,0,0,1.02435,-0.682172,-0.4537)" /></g></svg>
