<?xml version="1.0" encoding="UTF-8" standalone="no"?>
<!-- Created with Inkscape (http://www.inkscape.org/) -->

<svg
   width="20"
   height="20"
   viewBox="0 0 5.29167 5.29167"
   version="1.1"
   id="svg1"
   sodipodi:docname="pose_t.svg"
   inkscape:version="1.3.2 (091e20e, 2023-11-25, custom)"
   xmlns:inkscape="http://www.inkscape.org/namespaces/inkscape"
   xmlns:sodipodi="http://sodipodi.sourceforge.net/DTD/sodipodi-0.dtd"
   xmlns="http://www.w3.org/2000/svg"
   xmlns:svg="http://www.w3.org/2000/svg">
  <sodipodi:namedview
     id="namedview1"
     pagecolor="#ffffff"
     bordercolor="#666666"
     borderopacity="1.0"
     inkscape:showpageshadow="2"
     inkscape:pageopacity="0.0"
     inkscape:pagecheckerboard="0"
     inkscape:deskcolor="#d1d1d1"
     inkscape:document-units="px"
     showgrid="false"
     inkscape:zoom="22.2743"
     inkscape:cx="12.0094"
     inkscape:cy="11.1339"
     inkscape:current-layer="layer1" />
  <defs
     id="defs1" />
  <g
     inkscape:label="Layer 1"
     inkscape:groupmode="layer"
     id="layer1">
    <path
       style="color:#000000;display:inline;overflow:visible;visibility:visible;fill:none;stroke:#000000;stroke-width:0.264583;stroke-dasharray:none;marker:none;enable-background:accumulate"
       d="m 4.04399,1.30386 c -0.15783,-0.007 -0.2276,0.48239 -0.007,0.47735 0.49232,-0.0113 0.80611,-0.0731 1.09387,-0.2992 0.0577,-0.0453 0.0287,-0.16526 -0.0476,-0.16724 -0.1275,-0.003 -0.79523,8e-4 -1.03921,-0.0109 z"
       id="path3895"
       inkscape:connector-curvature="0"
       sodipodi:nodetypes="sssss" />
    <path
       sodipodi:nodetypes="szsss"
       inkscape:connector-curvature="0"
       id="path3883"
       d="M 3.09937,0.480947 C 3.11445,0.75276 3.04838,1.09194 2.6681,1.10583 2.28777,1.11971 2.16825,0.798321 2.15323,0.526511 2.13826,0.254696 2.35242,0.13409 2.61369,0.121507 c 0.26126,-0.01257 0.47065,0.08763 0.48568,0.35944 z"
       style="color:#000000;display:inline;overflow:visible;visibility:visible;fill:none;fill-opacity:1;fill-rule:nonzero;stroke:#000000;stroke-width:0.264583;stroke-dasharray:none;marker:none;enable-background:accumulate" />
    <path
       sodipodi:nodetypes="csscc"
       inkscape:connector-curvature="0"
       id="path3889"
       d="M 2.87836,3.6387 C 2.87545,3.45421 3.3412,3.52575 3.34393,3.63341 3.36086,4.30283 3.26812,4.72924 3.0459,5.11857 3.00137,5.19657 2.92969,5.13392 2.8831,5.05221 Z"
       style="color:#000000;display:inline;overflow:visible;visibility:visible;fill:none;fill-opacity:1;fill-rule:nonzero;stroke:#000000;stroke-width:0.264583;stroke-dasharray:none;marker:none;enable-background:accumulate"
       inkscape:transform-center-x="-0.202565"
       inkscape:transform-center-y="3.41564" />
    <path
       id="path3821"
       style="display:inline;overflow:visible;fill:none;stroke:#000000;stroke-width:0.264583;marker:none;enable-background:accumulate"
       d="M 3.78429,1.37182 A 0.305914,0.303498 0.008817 0 1 3.69404,1.79159 0.305914,0.303498 0.008817 0 1 3.27093,1.70205 0.305914,0.303498 0.008817 0 1 3.36117,1.28228 0.305914,0.303498 0.008817 0 1 3.78429,1.37182 Z" />
    <path
       id="path3825"
       style="display:inline;overflow:visible;fill:none;stroke:#000000;stroke-width:0.264585;marker:none;enable-background:accumulate"
       d="M 3.44676,2.73618 A 0.352345,0.347437 0.003575 0 1 3.21696,3.17215 0.352345,0.347437 0.003575 0 1 2.77482,2.94556 0.352345,0.347437 0.003575 0 1 3.00463,2.50959 0.352345,0.347437 0.003575 0 1 3.44676,2.73618 Z" />
    <path
       id="path3879"
       style="display:inline;overflow:visible;fill:none;stroke:#000000;stroke-width:0.264584;marker:none;enable-background:accumulate"
       d="M 2.96523,1.77705 A 0.379629,0.377032 9.91523 0 1 2.85388,2.29852 0.379629,0.377032 9.91523 0 1 2.32879,2.18665 0.379629,0.377032 9.91523 0 1 2.44015,1.66521 0.379629,0.377032 9.91523 0 1 2.96523,1.77705 Z" />
    <path
       style="color:#000000;display:inline;overflow:visible;visibility:visible;fill:none;stroke:#000000;stroke-width:0.264583;stroke-dasharray:none;marker:none;enable-background:accumulate"
       d="m 1.24123,1.30386 c 0.15783,-0.007 0.22759,0.48239 0.007,0.47735 C 0.756026,1.76992 0.442234,1.70815 0.154465,1.48201 0.096807,1.43668 0.125826,1.31675 0.202094,1.31477 0.329603,1.3115 0.997326,1.31549 1.24132,1.30387 Z"
       id="path1"
       inkscape:connector-curvature="0"
       sodipodi:nodetypes="sssss" />
    <path
       id="ellipse2"
       style="display:inline;overflow:visible;fill:none;stroke:#000000;stroke-width:0.264583;marker:none;enable-background:accumulate"
       d="M 1.50094,1.37183 A 0.303498,0.305914 89.9912 0 0 1.59118,1.7916 0.303498,0.305914 89.9912 0 0 2.01429,1.70206 0.303498,0.305914 89.9912 0 0 1.92405,1.2823 0.303498,0.305914 89.9912 0 0 1.50094,1.37183 Z" />
    <path
       id="ellipse3"
       style="display:inline;overflow:visible;fill:none;stroke:#000000;stroke-width:0.264585;marker:none;enable-background:accumulate"
       d="M 1.81489,2.7362 A 0.347437,0.352345 89.9964 0 0 2.04469,3.17217 0.347437,0.352345 89.9964 0 0 2.48683,2.94557 0.347437,0.352345 89.9964 0 0 2.25703,2.50959 0.347437,0.352345 89.9964 0 0 1.81489,2.7362 Z" />
    <path
       sodipodi:nodetypes="csscc"
       inkscape:connector-curvature="0"
       id="path3"
       d="m 2.32417,3.6387 c 0.003,-0.18449 -0.46284,-0.11295 -0.46558,-0.005 -0.017,0.66942 0.0758,1.09583 0.29804,1.48516 0.0445,0.078 0.1162,0.0154 0.16281,-0.0664 z"
       style="color:#000000;display:inline;overflow:visible;visibility:visible;fill:none;fill-opacity:1;fill-rule:nonzero;stroke:#000000;stroke-width:0.264583;stroke-dasharray:none;marker:none;enable-background:accumulate"
       inkscape:transform-center-x="0.202655"
       inkscape:transform-center-y="3.41564" />
  </g>
</svg>
