<?xml version="1.0" encoding="UTF-8" standalone="no"?>
<!-- Created with Inkscape (http://www.inkscape.org/) -->

<svg
   width="20"
   height="20"
   viewBox="0 0 5.29167 5.29167"
   version="1.1"
   id="svg1"
   inkscape:version="1.3.2 (091e20e, 2023-11-25, custom)"
   sodipodi:docname="sdf.svg"
   xmlns:inkscape="http://www.inkscape.org/namespaces/inkscape"
   xmlns:sodipodi="http://sodipodi.sourceforge.net/DTD/sodipodi-0.dtd"
   xmlns="http://www.w3.org/2000/svg"
   xmlns:svg="http://www.w3.org/2000/svg">
  <sodipodi:namedview
     id="namedview1"
     pagecolor="#ffffff"
     bordercolor="#666666"
     borderopacity="1.0"
     inkscape:showpageshadow="2"
     inkscape:pageopacity="0.0"
     inkscape:pagecheckerboard="0"
     inkscape:deskcolor="#d1d1d1"
     inkscape:document-units="mm"
     showgrid="true"
     inkscape:zoom="19.3514"
     inkscape:cx="11.5754"
     inkscape:cy="12.428"
     inkscape:window-width="2560"
     inkscape:window-height="1378"
     inkscape:window-x="-6"
     inkscape:window-y="-6"
     inkscape:window-maximized="1"
     inkscape:current-layer="layer1">
    <inkscape:grid
       id="grid1"
       units="px"
       originx="0"
       originy="0"
       spacingx="0.26458333"
       spacingy="0.26458333"
       empcolor="#0000ff"
       empopacity="0.25098039"
       color="#0000ff"
       opacity="0.1254902"
       empspacing="5"
       dotted="false"
       gridanglex="30"
       gridanglez="30"
       visible="true" />
  </sodipodi:namedview>
  <defs
     id="defs1" />
  <g
     inkscape:label="Layer 1"
     inkscape:groupmode="layer"
     id="layer1">
    <path
       id="circle4"
       style="color:#000000;overflow:visible;fill:none;stroke:#000000;stroke-width:0.185208;stroke-linecap:round;stroke-linejoin:round;stroke-dasharray:none"
       d="M 3.48867,0.130351 A 1.6725,1.6725 0 0 0 1.81604,1.80299 1.6725,1.6725 0 0 0 1.90081,2.32004 1.45223,1.45222 0 0 0 1.55987,2.27954 1.45223,1.45222 0 0 0 0.107614,3.7318 1.45223,1.45222 0 0 0 1.55987,5.18406 1.45223,1.45222 0 0 0 3.01213,3.7318 1.45223,1.45222 0 0 0 2.97163,3.39087 1.6725,1.6725 0 0 0 3.48867,3.47563 1.6725,1.6725 0 0 0 5.16132,1.80299 1.6725,1.6725 0 0 0 3.48867,0.130351 Z" />
    <path
       id="ellipse1"
       style="overflow:visible;fill:none;stroke:#000000;stroke-width:0.185208;stroke-linecap:round;stroke-linejoin:round;stroke-dasharray:none"
       d="M 2.52755,3.73179 A 0.967682,0.967673 0 0 1 1.55987,4.69946 0.967682,0.967673 0 0 1 0.592188,3.73179 0.967682,0.967673 0 0 1 1.55987,2.76412 0.967682,0.967673 0 0 1 2.52755,3.73179 Z M 4.68775,1.803 A 1.19905,1.19905 0 0 1 3.4887,3.00205 1.19905,1.19905 0 0 1 2.28965,1.803 1.19905,1.19905 0 0 1 3.4887,0.60395 1.19905,1.19905 0 0 1 4.68775,1.803 Z" />
    <circle
       style="color:#000000;overflow:visible;fill:none;stroke:#000000;stroke-width:0.264583;stroke-linecap:round;stroke-linejoin:round;stroke-dasharray:none"
       id="path1"
       cx="1.55987"
       cy="3.7318"
       r="0.482202" />
    <circle
       style="color:#000000;overflow:visible;fill:none;stroke:#000000;stroke-width:0.264583;stroke-linecap:round;stroke-linejoin:round;stroke-dasharray:none"
       id="circle1"
       cx="3.48867"
       cy="1.80299"
       r="0.723303" />
  </g>
</svg>
