<?xml version="1.0" encoding="UTF-8" standalone="no"?>
<!-- Created with Inkscape (http://www.inkscape.org/) -->

<svg
   width="20"
   height="20"
   viewBox="0 0 5.29167 5.29167"
   version="1.1"
   id="svg1"
   sodipodi:docname="string.svg"
   inkscape:version="1.3.2 (091e20e, 2023-11-25, custom)"
   xmlns:inkscape="http://www.inkscape.org/namespaces/inkscape"
   xmlns:sodipodi="http://sodipodi.sourceforge.net/DTD/sodipodi-0.dtd"
   xmlns="http://www.w3.org/2000/svg"
   xmlns:svg="http://www.w3.org/2000/svg">
  <sodipodi:namedview
     id="namedview1"
     pagecolor="#ffffff"
     bordercolor="#666666"
     borderopacity="1.0"
     inkscape:showpageshadow="2"
     inkscape:pageopacity="0.0"
     inkscape:pagecheckerboard="0"
     inkscape:deskcolor="#d1d1d1"
     inkscape:document-units="px"
     showgrid="true"
     inkscape:zoom="22.2743"
     inkscape:cx="12.0094"
     inkscape:cy="11.1339"
     inkscape:current-layer="layer1">
    <inkscape:grid
       id="grid1"
       units="px"
       originx="0"
       originy="0"
       spacingx="0.264583"
       spacingy="0.264583"
       empcolor="#0000ff"
       empopacity="0.25098"
       color="#0000ff"
       opacity="0.12549"
       empspacing="5"
       dotted="false"
       gridanglex="30"
       gridanglez="30"
       visible="true" />
  </sodipodi:namedview>
  <defs
     id="defs1" />
  <g
     inkscape:label="Layer 1"
     inkscape:groupmode="layer"
     id="layer1">
    <path
       d="M 3.41215,3.53844 H 1.48759 L 1.13846,4.3348 c -0.0831,0.19307 -0.12464,0.33726 -0.12464,0.43258 0,0.0758 0.0354,0.14295 0.1063,0.20161 0.0733,0.0562 0.22971,0.0929 0.46922,0.10996 v 0.2188 H 0.024045 V 5.07897 C 0.231775,5.04231 0.366189,4.99465 0.427286,4.93599 0.551924,4.8187 0.690004,4.58042 0.841526,4.22116 L 2.59013,0.130095 h 0.1283 L 4.4487,4.26515 C 4.58801,4.59752 4.71387,4.81381 4.82628,4.91401 4.94115,5.01176 5.1,5.06675 5.30284,5.07897 V 5.29775 H 3.34162 V 5.07897 c 0.19796,-0.01 0.33115,-0.0427 0.39958,-0.0989 0.0709,-0.0562 0.10629,-0.12463 0.10629,-0.20528 0,-0.10753 -0.0489,-0.27738 -0.14664,-0.50955 z M 3.32138,3.17213 2.4545,1.27017 1.66062,3.17213 Z"
       id="text1"
       style="font-size:6.35004px;line-height:125%;font-family:'Times New Roman';-inkscape-font-specification:'Times New Roman, Normal';stroke-width:0.264584;stroke-linecap:round;stroke-linejoin:round"
       aria-label="A"
       sodipodi:nodetypes="cccsccccccccccccccccscccccc" />
  </g>
</svg>
