<?xml version="1.0" encoding="UTF-8" standalone="no"?>
<!-- Created with Inkscape (http://www.inkscape.org/) -->

<svg
   width="20"
   height="20"
   viewBox="0 0 5.29167 5.29167"
   version="1.1"
   id="svg1"
   sodipodi:docname="surface.svg"
   inkscape:version="1.3.2 (091e20e, 2023-11-25, custom)"
   xmlns:inkscape="http://www.inkscape.org/namespaces/inkscape"
   xmlns:sodipodi="http://sodipodi.sourceforge.net/DTD/sodipodi-0.dtd"
   xmlns="http://www.w3.org/2000/svg"
   xmlns:svg="http://www.w3.org/2000/svg"
   xmlns:a="http://ns.adobe.com/AdobeSVGViewerExtensions/3.0/"
   xmlns:i="http://ns.adobe.com/AdobeIllustrator/10.0/">
  <sodipodi:namedview
     id="namedview1"
     pagecolor="#ffffff"
     bordercolor="#666666"
     borderopacity="1.0"
     inkscape:showpageshadow="2"
     inkscape:pageopacity="0.0"
     inkscape:pagecheckerboard="0"
     inkscape:deskcolor="#d1d1d1"
     inkscape:document-units="px"
     showgrid="false"
     inkscape:zoom="22.2743"
     inkscape:cx="12.0094"
     inkscape:cy="11.1564"
     inkscape:current-layer="layer1" />
  <defs
     id="defs1" />
  <g
     inkscape:label="Layer 1"
     inkscape:groupmode="layer"
     id="layer1">
    <path
       i:knockout="Off"
       a:adobe-blending-mode="lighten"
       d="M 1.45391,1.99885 C 1.14067,2.31596 0.718368,2.5712 0.14053,2.82287 1.0356,3.44792 0.819109,3.2076 1.26459,3.51677 1.76262,3.86252 1.57739,3.83158 2.57685,4.52717 3.65272,3.83141 3.50819,3.84665 3.93697,3.54508 4.26864,3.32992 4.17381,3.49456 5.11628,2.88505 4.54175,2.61581 4.15824,2.33213 3.85135,2.04036 3.33183,1.5468 3.05758,0.991399 2.6329,0.991399 2.1931,0.991399 1.81913,1.5891 1.45391,1.99885 Z"
       id="path26020"
       style="fill:#eeeeec;stroke:#000000;stroke-width:0.264585;stroke-linecap:butt;stroke-linejoin:round;stroke-dasharray:none"
       inkscape:connector-curvature="0" />
    <path
       inkscape:connector-curvature="0"
       style="fill:none;stroke:#000000;stroke-width:0.264585;stroke-linecap:butt;stroke-linejoin:round;stroke-miterlimit:4;stroke-dasharray:none"
       id="path9227"
       d="M 1.45391,1.99885 C 1.14067,2.31596 0.718368,2.5712 0.14053,2.82287 1.0356,3.44792 0.819109,3.2076 1.26459,3.51677 1.76262,3.86252 1.57739,3.83158 2.57685,4.52717 3.65272,3.83141 3.50819,3.84665 3.93697,3.54508 4.26864,3.32992 4.17381,3.49456 5.11628,2.88505 4.54175,2.61581 4.15824,2.33213 3.85135,2.04036 3.33183,1.5468 3.05758,0.991399 2.6329,0.991399 2.1931,0.991399 1.81913,1.5891 1.45391,1.99885 Z"
       a:adobe-blending-mode="lighten"
       i:knockout="Off" />
    <g
       id="g26536"
       transform="matrix(0.260994,0,0,0.36886,0.681121,-0.717274)"
       style="stroke:#000000;stroke-width:0.42637;stroke-linecap:butt;stroke-linejoin:round;stroke-dasharray:none">
      <path
         inkscape:connector-curvature="0"
         style="fill:none;stroke:#000000;stroke-width:0.42637;stroke-linecap:butt;stroke-linejoin:round;stroke-miterlimit:4;stroke-dasharray:none"
         id="path9235"
         d="M 12.5736,11.779 C 12.0366,11.0662 10.9943,9.59189 10.0437,7.7695 9.04047,5.84508 8.01859,4.47281 7.06844,4.61205"
         i:knockout="Off" />
      <path
         inkscape:connector-curvature="0"
         style="fill:none;stroke:#000000;stroke-width:0.42637;stroke-linecap:butt;stroke-linejoin:round;stroke-miterlimit:4;stroke-dasharray:none"
         id="path9237"
         d="M 9.98796,13.2262 C 7.90038,11.4296 6.52205,8.69968 4.74439,7.96013 3.22664,7.33004 2.07374,8.81337 0.504182,8.75469"
         i:knockout="Off"
         sodipodi:nodetypes="ccc" />
      <path
         inkscape:connector-curvature="0"
         style="fill:none;stroke:#000000;stroke-width:0.42637;stroke-linecap:butt;stroke-linejoin:round;stroke-miterlimit:4;stroke-dasharray:none"
         id="path9239"
         d="M 14.953,10.902 C 13.3316,9.67772 12.8313,8.43374 11.3034,6.84078"
         i:knockout="Off" />
      <path
         inkscape:connector-curvature="0"
         style="fill:none;stroke:#000000;stroke-width:0.42637;stroke-linecap:butt;stroke-linejoin:round;stroke-miterlimit:4;stroke-dasharray:none"
         id="path9241"
         d="M 4.64481,13.1474 C 7.02904,11.3823 7.9626,8.96936 10.1011,8.07787 c 1.5846,-0.66118 2.7364,0.75695 4.3751,0.75695"
         i:knockout="Off"
         sodipodi:nodetypes="ccc" />
      <path
         inkscape:connector-curvature="0"
         style="fill:none;stroke:#000000;stroke-width:0.42637;stroke-linecap:butt;stroke-linejoin:round;stroke-miterlimit:4;stroke-dasharray:none"
         id="path9243"
         d="M 2.16761,11.6998 C 3.06994,10.7085 3.52376,9.79069 4.85999,7.69331 5.8553,6.13188 6.62835,4.88965 7.42043,4.67641 7.97432,4.52754 8.69512,4.87433 8.69512,4.87433"
         i:knockout="Off" />
      <path
         inkscape:connector-curvature="0"
         style="fill:none;stroke:#000000;stroke-width:0.42637;stroke-linecap:butt;stroke-linejoin:round;stroke-miterlimit:4;stroke-dasharray:none"
         id="path9245"
         d="M -0.099733,10.7588 C 1.3525,9.86206 2.86849,7.48357 3.86557,6.59602"
         i:knockout="Off" />
    </g>
  </g>
</svg>
