<?xml version="1.0" encoding="UTF-8" standalone="no"?>
<!-- Created with Inkscape (http://www.inkscape.org/) -->

<svg
   width="20"
   height="20"
   viewBox="0 0 5.29167 5.29167"
   version="1.1"
   id="svg1"
   sodipodi:docname="volume_vdb.svg"
   inkscape:version="1.3.2 (091e20e, 2023-11-25, custom)"
   xml:space="preserve"
   xmlns:inkscape="http://www.inkscape.org/namespaces/inkscape"
   xmlns:sodipodi="http://sodipodi.sourceforge.net/DTD/sodipodi-0.dtd"
   xmlns="http://www.w3.org/2000/svg"
   xmlns:svg="http://www.w3.org/2000/svg"><sodipodi:namedview
     id="namedview1"
     pagecolor="#ffffff"
     bordercolor="#666666"
     borderopacity="1.0"
     inkscape:showpageshadow="2"
     inkscape:pageopacity="0.0"
     inkscape:pagecheckerboard="0"
     inkscape:deskcolor="#d1d1d1"
     inkscape:document-units="px"
     showgrid="false"
     inkscape:zoom="22.2743"
     inkscape:cx="12.0318"
     inkscape:cy="11.1788"
     inkscape:current-layer="layer1" /><defs
     id="defs1"><linearGradient
       id="linearGradient9073"><stop
         id="stop9075"
         offset="0"
         style="stop-color:#74726e;stop-opacity:1;" /><stop
         id="stop9077"
         offset="1"
         style="stop-color:#5d5b58;stop-opacity:0;" /></linearGradient><linearGradient
       id="linearGradient9027"><stop
         style="stop-color:#2e3436;stop-opacity:0.61855668;"
         offset="0"
         id="stop9029" /><stop
         style="stop-color:#2e3436;stop-opacity:0;"
         offset="1"
         id="stop9031" /></linearGradient></defs><g
     inkscape:label="Layer 1"
     inkscape:groupmode="layer"
     id="layer1"><path
       id="path1"
       style="color:#000000;overflow:visible;fill:none;stroke:#000000;stroke-width:0.264584;stroke-linecap:round;stroke-linejoin:round;stroke-dasharray:none"
       d="M 2.57017,0.463291 A 0.857922,0.902984 0 0 0 1.72891,1.19965 0.925661,0.925288 0 0 0 1.54277,1.18051 0.925661,0.925288 0 0 0 0.617051,2.10536 0.925661,0.925288 0 0 0 0.652901,2.3572 0.722467,0.722176 0 0 0 0.154433,3.04201 a 0.722467,0.722176 0 0 0 0.72241,0.72212 0.722467,0.722176 0 0 0 0.0088,-4.9e-4 0.925661,0.925288 0 0 0 0.916887,0.80164 0.925661,0.925288 0 0 0 0.56182,-0.19292 1.1853,1.18482 0 0 0 0.883,0.39616 1.1853,1.18482 0 0 0 1.17767,-1.0795 0.643447,0.835013 0 0 0 0.0869,0.008 A 0.643447,0.835013 0 0 0 5.15533,2.86185 0.643447,0.835013 0 0 0 4.53014,2.02732 0.637805,0.637548 0 0 0 4.57975,1.78382 0.637805,0.637548 0 0 0 3.94181,1.14663 0.637805,0.637548 0 0 0 3.42517,1.4127 0.857922,0.902984 0 0 0 3.42811,1.36656 0.857922,0.902984 0 0 0 2.57017,0.463291 Z" /><path
       d="M 4.27474,2.68441 C 4.23124,2.32467 3.94276,2.03844 3.57916,1.99326 3.46268,1.97623 3.32781,1.98173 3.17605,2.02768 c 0,0 -0.253,0.0784 -0.45674,0.30708 0,0 -0.0871,0.10231 -0.15597,0.19647 -0.004,0.006 -0.008,0.0116 -0.0124,0.0173 -5.2e-4,0 -0.0853,0.11243 -0.097,0.1282 -0.0725,0.099 -0.17053,0.23478 -0.2872,0.33545 -0.0879,0.0899 -0.21209,0.14601 -0.35003,0.14601 -0.0537,0 -0.10534,-0.009 -0.15376,-0.0245 C 1.57384,3.10853 1.4762,3.05429 1.40977,2.941 1.36218,2.86889 1.33458,2.78302 1.33458,2.69106 c 0,-0.25764 0.21555,-0.46366 0.48153,-0.46666 0.16503,-0.002 0.41864,0.0403 0.61697,0.31539 0.002,0.003 0.004,0.006 0.006,0.009 0,0 5.2e-4,7.8e-4 2.6e-4,5.2e-4 -0.027,-0.0751 -0.13256,-0.41398 -0.44007,-0.53204 0,0 -0.0743,-0.0286 -0.18612,-0.0338 -0.15172,-0.007 -0.37274,0.0298 -0.57142,0.24085 0,0 -0.23598,0.22402 -0.21409,0.56919 0.0103,0.43453 0.367,0.77887 0.79844,0.77243 0.094,0.003 0.1979,-0.009 0.31119,-0.043 0,0 0.22909,-0.0603 0.45738,-0.30585 0,0 0.0737,-0.0863 0.13917,-0.17361 0.0101,-0.0135 0.0198,-0.0269 0.0294,-0.0401 0.0105,-0.013 0.0212,-0.0261 0.0322,-0.0397 0.0804,-0.10717 0.33809,-0.46814 0.57769,-0.54773 0.0492,-0.018 0.10269,-0.028 0.1582,-0.028 0.2546,0 0.46124,0.20621 0.46124,0.46063 0,0.23011 -0.16895,0.44319 -0.38972,0.47742 -0.027,0.005 -0.47078,0.0777 -0.74891,-0.30794 -0.002,-0.003 -0.004,-0.006 -0.006,-0.009 -5.2e-4,-2.6e-4 0.002,0.004 0.004,0.0111 0.0352,0.1084 0.13732,0.4102 0.46326,0.51492 0,0 0.0833,0.0277 0.20602,0.0269 0.15071,-0.001 0.36097,-0.0445 0.55159,-0.23374 0,0 0.25698,-0.26289 0.20245,-0.64334 z"
       id="path1384"
       sodipodi:nodetypes="cccccsccsccscscsccccccccscccsscccsccscc"
       style="fill:#000000;stroke:none;stroke-width:0.131056;stroke-miterlimit:4;stroke-dasharray:none"
       inkscape:connector-curvature="0" /></g></svg>
