<?xml version="1.0" encoding="UTF-8" standalone="no"?>
<!-- Created with Inkscape (http://www.inkscape.org/) -->

<svg
   width="20"
   height="20"
   viewBox="0 0 5.29167 5.29167"
   version="1.1"
   id="svg1"
   sodipodi:docname="volume_dense.svg"
   inkscape:version="1.3.2 (091e20e, 2023-11-25, custom)"
   xml:space="preserve"
   xmlns:inkscape="http://www.inkscape.org/namespaces/inkscape"
   xmlns:sodipodi="http://sodipodi.sourceforge.net/DTD/sodipodi-0.dtd"
   xmlns="http://www.w3.org/2000/svg"
   xmlns:svg="http://www.w3.org/2000/svg"><sodipodi:namedview
     id="namedview1"
     pagecolor="#ffffff"
     bordercolor="#666666"
     borderopacity="1.0"
     inkscape:showpageshadow="2"
     inkscape:pageopacity="0.0"
     inkscape:pagecheckerboard="0"
     inkscape:deskcolor="#d1d1d1"
     inkscape:document-units="px"
     showgrid="true"
     inkscape:zoom="44.5486"
     inkscape:cx="11.9981"
     inkscape:cy="11.1451"
     inkscape:current-layer="layer1"><inkscape:grid
       id="grid8"
       units="px"
       originx="0"
       originy="0"
       spacingx="0.264583"
       spacingy="0.264583"
       empcolor="#0000ff"
       empopacity="0.25098"
       color="#0000ff"
       opacity="0.12549"
       empspacing="5"
       dotted="false"
       gridanglex="30"
       gridanglez="30"
       visible="true" /></sodipodi:namedview><defs
     id="defs1"><linearGradient
       id="linearGradient9073"><stop
         id="stop9075"
         offset="0"
         style="stop-color:#74726e;stop-opacity:1;" /><stop
         id="stop9077"
         offset="1"
         style="stop-color:#5d5b58;stop-opacity:0;" /></linearGradient><linearGradient
       id="linearGradient9027"><stop
         style="stop-color:#2e3436;stop-opacity:0.61855668;"
         offset="0"
         id="stop9029" /><stop
         style="stop-color:#2e3436;stop-opacity:0;"
         offset="1"
         id="stop9031" /></linearGradient></defs><g
     inkscape:label="Layer 1"
     inkscape:groupmode="layer"
     id="layer1"><path
       id="path19"
       style="color:#000000;overflow:visible;fill:#000000;stroke:none;stroke-width:0.264584;stroke-linecap:round;stroke-linejoin:round;stroke-dasharray:none"
       d="M 3.05873 1.01234 A 0.261326 0.261326 0 0 0 2.79725 1.27382 A 0.261326 0.261326 0 0 0 3.05873 1.53479 A 0.261326 0.261326 0 0 0 3.3197 1.27382 A 0.261326 0.261326 0 0 0 3.05873 1.01234 z M 2.03657 1.02423 A 0.261326 0.261326 0 0 0 1.77509 1.28571 A 0.261326 0.261326 0 0 0 2.03657 1.54668 A 0.261326 0.261326 0 0 0 2.29805 1.28571 A 0.261326 0.261326 0 0 0 2.03657 1.02423 z M 3.94188 1.1467 A 0.637805 0.637548 0 0 0 3.91036 1.15032 A 0.261326 0.261326 0 0 0 3.87263 1.27796 A 0.261326 0.261326 0 0 0 4.1336 1.53944 A 0.261326 0.261326 0 0 0 4.3894 1.33067 A 0.637805 0.637548 0 0 0 3.94188 1.1467 z M 1.28261 1.22267 A 0.925661 0.925288 0 0 0 0.870748 1.47743 A 0.261326 0.261326 0 0 0 1.02681 1.53479 A 0.261326 0.261326 0 0 0 1.28829 1.27382 A 0.261326 0.261326 0 0 0 1.28261 1.22267 z M 1.02681 2.07068 A 0.261326 0.261326 0 0 0 0.765328 2.33216 A 0.261326 0.261326 0 0 0 1.02681 2.59313 A 0.261326 0.261326 0 0 0 1.28829 2.33216 A 0.261326 0.261326 0 0 0 1.02681 2.07068 z M 3.05873 2.07068 A 0.261326 0.261326 0 0 0 2.79725 2.33216 A 0.261326 0.261326 0 0 0 3.05873 2.59313 A 0.261326 0.261326 0 0 0 3.3197 2.33216 A 0.261326 0.261326 0 0 0 3.05873 2.07068 z M 4.1336 2.07481 A 0.261326 0.261326 0 0 0 3.87263 2.33629 A 0.261326 0.261326 0 0 0 4.1336 2.59778 A 0.261326 0.261326 0 0 0 4.39508 2.33629 A 0.261326 0.261326 0 0 0 4.1336 2.07481 z M 2.03657 2.08256 A 0.261326 0.261326 0 0 0 1.77509 2.34404 A 0.261326 0.261326 0 0 0 2.03657 2.60501 A 0.261326 0.261326 0 0 0 2.29805 2.34404 A 0.261326 0.261326 0 0 0 2.03657 2.08256 z M 1.02681 3.12901 A 0.261326 0.261326 0 0 0 0.765328 3.39049 A 0.261326 0.261326 0 0 0 1.02681 3.65146 A 0.261326 0.261326 0 0 0 1.28829 3.39049 A 0.261326 0.261326 0 0 0 1.02681 3.12901 z M 3.05873 3.12901 A 0.261326 0.261326 0 0 0 2.79725 3.39049 A 0.261326 0.261326 0 0 0 3.05873 3.65146 A 0.261326 0.261326 0 0 0 3.3197 3.39049 A 0.261326 0.261326 0 0 0 3.05873 3.12901 z M 4.1336 3.13314 A 0.261326 0.261326 0 0 0 3.87263 3.39463 A 0.261326 0.261326 0 0 0 4.1336 3.65559 A 0.261326 0.261326 0 0 0 4.39508 3.39463 A 0.261326 0.261326 0 0 0 4.1336 3.13314 z M 2.03657 3.1409 A 0.261326 0.261326 0 0 0 1.77509 3.40238 A 0.261326 0.261326 0 0 0 2.03657 3.66334 A 0.261326 0.261326 0 0 0 2.29805 3.40238 A 0.261326 0.261326 0 0 0 2.03657 3.1409 z M 3.05873 4.18734 A 0.261326 0.261326 0 0 0 2.79725 4.44883 A 0.261326 0.261326 0 0 0 3.05873 4.70979 A 0.261326 0.261326 0 0 0 3.3197 4.44883 A 0.261326 0.261326 0 0 0 3.05873 4.18734 z M 4.1336 4.19148 A 0.261326 0.261326 0 0 0 3.87263 4.45296 A 0.261326 0.261326 0 0 0 3.90157 4.56613 A 1.1853 1.18482 0 0 0 4.2416 4.21525 A 0.261326 0.261326 0 0 0 4.1336 4.19148 z M 2.03657 4.19923 A 0.261326 0.261326 0 0 0 1.77509 4.46071 A 0.261326 0.261326 0 0 0 1.79782 4.56458 A 0.925661 0.925288 0 0 0 1.80248 4.5651 A 0.925661 0.925288 0 0 0 2.2934 4.41575 A 0.261326 0.261326 0 0 0 2.03657 4.19923 z " /><path
       id="path1"
       style="color:#000000;overflow:visible;fill:none;stroke:#000000;stroke-width:0.264584;stroke-linecap:round;stroke-linejoin:round;stroke-dasharray:none"
       d="M 2.57017,0.463291 A 0.857922,0.902984 0 0 0 1.72891,1.19965 0.925661,0.925288 0 0 0 1.54277,1.18051 0.925661,0.925288 0 0 0 0.617051,2.10536 0.925661,0.925288 0 0 0 0.652901,2.3572 0.722467,0.722176 0 0 0 0.154433,3.04201 a 0.722467,0.722176 0 0 0 0.72241,0.72212 0.722467,0.722176 0 0 0 0.0088,-4.9e-4 0.925661,0.925288 0 0 0 0.916887,0.80164 0.925661,0.925288 0 0 0 0.56182,-0.19292 1.1853,1.18482 0 0 0 0.883,0.39616 1.1853,1.18482 0 0 0 1.17767,-1.0795 0.643447,0.835013 0 0 0 0.0869,0.008 A 0.643447,0.835013 0 0 0 5.15533,2.86185 0.643447,0.835013 0 0 0 4.53014,2.02732 0.637805,0.637548 0 0 0 4.57975,1.78382 0.637805,0.637548 0 0 0 3.94181,1.14663 0.637805,0.637548 0 0 0 3.42517,1.4127 0.857922,0.902984 0 0 0 3.42811,1.36656 0.857922,0.902984 0 0 0 2.57017,0.463291 Z" /></g></svg>
