<?xml version="1.0" encoding="UTF-8" standalone="no"?>
<!-- Created with Inkscape (http://www.inkscape.org/) -->

<svg
   width="20"
   height="20"
   viewBox="0 0 5.29167 5.29167"
   version="1.1"
   id="svg1"
   sodipodi:docname="volume_vdb.svg"
   inkscape:version="1.3.2 (091e20e, 2023-11-25, custom)"
   xml:space="preserve"
   xmlns:inkscape="http://www.inkscape.org/namespaces/inkscape"
   xmlns:sodipodi="http://sodipodi.sourceforge.net/DTD/sodipodi-0.dtd"
   xmlns="http://www.w3.org/2000/svg"
   xmlns:svg="http://www.w3.org/2000/svg"><sodipodi:namedview
     id="namedview1"
     pagecolor="#ffffff"
     bordercolor="#666666"
     borderopacity="1.0"
     inkscape:showpageshadow="2"
     inkscape:pageopacity="0.0"
     inkscape:pagecheckerboard="0"
     inkscape:deskcolor="#d1d1d1"
     inkscape:document-units="px"
     showgrid="false"
     inkscape:zoom="22.2743"
     inkscape:cx="12.0318"
     inkscape:cy="11.1788"
     inkscape:current-layer="layer1" /><defs
     id="defs1"><linearGradient
       id="linearGradient9073"><stop
         id="stop9075"
         offset="0"
         style="stop-color:#74726e;stop-opacity:1;" /><stop
         id="stop9077"
         offset="1"
         style="stop-color:#5d5b58;stop-opacity:0;" /></linearGradient><linearGradient
       id="linearGradient9027"><stop
         style="stop-color:#2e3436;stop-opacity:0.61855668;"
         offset="0"
         id="stop9029" /><stop
         style="stop-color:#2e3436;stop-opacity:0;"
         offset="1"
         id="stop9031" /></linearGradient></defs><g
     inkscape:label="Layer 1"
     inkscape:groupmode="layer"
     id="layer1"><path
       id="path1"
       style="color:#000000;overflow:visible;fill:none;stroke:#000000;stroke-width:0.264584;stroke-linecap:round;stroke-linejoin:round;stroke-dasharray:none"
       d="M 2.57017,0.463291 A 0.857922,0.902984 0 0 0 1.72891,1.19965 0.925661,0.925288 0 0 0 1.54277,1.18051 0.925661,0.925288 0 0 0 0.617051,2.10536 0.925661,0.925288 0 0 0 0.652901,2.3572 0.722467,0.722176 0 0 0 0.154433,3.04201 a 0.722467,0.722176 0 0 0 0.72241,0.72212 0.722467,0.722176 0 0 0 0.0088,-4.9e-4 0.925661,0.925288 0 0 0 0.916887,0.80164 0.925661,0.925288 0 0 0 0.56182,-0.19292 1.1853,1.18482 0 0 0 0.883,0.39616 1.1853,1.18482 0 0 0 1.17767,-1.0795 0.643447,0.835013 0 0 0 0.0869,0.008 A 0.643447,0.835013 0 0 0 5.15533,2.86185 0.643447,0.835013 0 0 0 4.53014,2.02732 0.637805,0.637548 0 0 0 4.57975,1.78382 0.637805,0.637548 0 0 0 3.94181,1.14663 0.637805,0.637548 0 0 0 3.42517,1.4127 0.857922,0.902984 0 0 0 3.42811,1.36656 0.857922,0.902984 0 0 0 2.57017,0.463291 Z" /><path
       d="M 4.49349,2.67225 C 4.45039,2.26086 4.08928,1.91812 3.67897,1.88447 3.27201,1.83058 2.87669,2.06005 2.64138,2.38086 2.42665,2.64023 2.26157,2.95496 1.97262,3.14155 1.70999,3.29164 1.32404,3.18764 1.2056,2.8993 1.07337,2.63825 1.21785,2.29379 1.49016,2.19321 1.82335,2.06769 2.22039,2.22494 2.41048,2.51889 2.3205,2.23446 2.11875,1.93937 1.805,1.88814 1.44527,1.81671 1.07296,2.0282 0.908449,2.34777 0.686524,2.74979 0.837825,3.30646 1.23366,3.54009 1.53063,3.72303 1.9249,3.71236 2.23003,3.5549 2.48941,3.42544 2.66572,3.18996 2.83414,2.96312 3.01153,2.7347 3.19412,2.48123 3.4704,2.36747 3.7477,2.25679 4.09061,2.43659 4.15698,2.72782 4.24616,3.04623 3.98677,3.41233 3.65002,3.40901 3.35105,3.42876 3.04203,3.29265 2.87412,3.04065 c 0.0802,0.28471 0.292,0.5566 0.59547,0.61263 0.38452,0.0785 0.81241,-0.13414 0.95725,-0.50426 0.065,-0.14836 0.093,-0.3171 0.0667,-0.47677 z"
       id="path1384"
       style="fill:#000000;stroke:none;stroke-width:0.131056;stroke-miterlimit:4;stroke-dasharray:none"
       inkscape:connector-curvature="0" /></g></svg>
